<svg xmlns="http://www.w3.org/2000/svg" width="107.392" height="15.324" viewBox="0 0 107.392 15.324">
  <g id="_1_star" data-name="1_star" transform="translate(0)">
    <path id="Path_321" data-name="Path 321" d="M27.136,50.083H22.909a2.6,2.6,0,0,1-2.48-1.809L19.108,44.23l-1.3,4.044a2.6,2.6,0,0,1-2.48,1.809H11.08l3.435,2.5a2.624,2.624,0,0,1,.955,2.927l-1.3,4.024,3.435-2.5a2.592,2.592,0,0,1,3.069,0l3.435,2.48-1.3-4.024a2.634,2.634,0,0,1,.955-2.927Z" transform="translate(-11.08 -44.23)" fill="#ffa200"/>
    <path id="Path_322" data-name="Path 322" d="M60.106,50.073H55.858a2.6,2.6,0,0,1-2.48-1.809l-1.3-4.024-1.3,4.024a2.6,2.6,0,0,1-2.48,1.809H44.05l3.435,2.5A2.624,2.624,0,0,1,48.44,55.5l-1.3,4.024,3.435-2.5a2.686,2.686,0,0,1,1.524-.508,2.558,2.558,0,0,1,1.545.508l3.435,2.48-1.3-4.024a2.634,2.634,0,0,1,.955-2.927Z" transform="translate(2.634 -44.22)" fill="#b4b4b4"/>
    <path id="Path_323" data-name="Path 323" d="M93.086,50.083H88.839a2.6,2.6,0,0,1-2.48-1.809l-1.3-4.044-1.321,4.044a2.6,2.6,0,0,1-2.48,1.809H77.01l3.435,2.5A2.624,2.624,0,0,1,81.4,55.51l-1.3,4.024,3.435-2.5a2.686,2.686,0,0,1,1.524-.508,2.558,2.558,0,0,1,1.545.508l3.435,2.48-1.3-4.024a2.634,2.634,0,0,1,.955-2.927Z" transform="translate(14.306 -44.23)" fill="#b4b4b4"/>
    <path id="Path_324" data-name="Path 324" d="M76.6,50.073H72.348a2.6,2.6,0,0,1-2.48-1.809l-1.3-4.024-1.3,4.024a2.6,2.6,0,0,1-2.48,1.809H60.54l3.435,2.5A2.624,2.624,0,0,1,64.93,55.5l-1.3,4.024,3.435-2.5a2.686,2.686,0,0,1,1.524-.508,2.558,2.558,0,0,1,1.545.508l3.435,2.5-1.321-4.044a2.6,2.6,0,0,1,.955-2.927Z" transform="translate(9.497 -44.22)" fill="#b4b4b4"/>
    <path id="Path_325" data-name="Path 325" d="M43.626,50.073H39.378a2.6,2.6,0,0,1-2.48-1.809L35.6,44.24l-1.3,4.024a2.6,2.6,0,0,1-2.48,1.809H27.57L31,52.573A2.624,2.624,0,0,1,31.96,55.5l-1.321,4.044,3.435-2.5a2.592,2.592,0,0,1,3.069,0l3.435,2.48-1.3-4.024a2.634,2.634,0,0,1,.955-2.927Z" transform="translate(-4.218 -44.22)" fill="#b4b4b4"/>
  </g>
</svg>
