<svg xmlns="http://www.w3.org/2000/svg" width="23.44" height="24" viewBox="0 0 23.44 24"><defs><style>.a{fill:#3a3a3a;}</style></defs><g transform="translate(0 600)"><path class="a" d="M12.3-599.92c-.268.176-.26.1-.26,2.528v2.192H9.56v4.96h-.4v-.252l0-.248-1.036-.572-1.036-.568H1.96v13.84H0V-576H23.44v-2.04H21.2v-12H15.72v-5.16H13.24v-2.16c0-2.368,0-2.328-.236-2.532a.445.445,0,0,0-.356-.108A.6.6,0,0,0,12.3-599.92Zm1.468,6.356.132.116v1.736l-.132.116-.128.116H11.6l-.112-.1-.112-.1v-1.816l.112-.1.112-.1H13.64ZM6.04-590v.68H2.92v-1.36H6.04Zm5.58,1.252c.168.168.192.312.172,1.12-.012.552-.02.636-.1.736-.164.228-.28.252-1.116.252-1.176,0-1.188-.016-1.172-1.192l.012-.776.148-.136.152-.136h1.768Zm4.08,0c.168.168.192.312.172,1.12-.012.552-.02.636-.1.736-.164.228-.28.252-1.116.252-1.176,0-1.188-.016-1.172-1.192l.012-.776.148-.136.152-.136h1.768Zm3.816.292c.08.1.084.156.084,1,0,.88-.016,1.024-.136,1.1a1.776,1.776,0,0,1-.42.032c-.556,0-.524.072-.524-1.112,0-1.2-.032-1.128.524-1.128C19.416-588.56,19.436-588.556,19.516-588.456ZM6.04-587.48v.68H2.92v-1.36H6.04Zm0,2.5v.66H2.92v-1.32H6.04Zm13.444-.184c.1.076.1.084.108,1.012.012.9.008.94-.072,1.044s-.1.108-.456.108c-.58,0-.544.068-.544-1.1,0-1.192-.024-1.136.516-1.136C19.324-585.24,19.408-585.224,19.484-585.164Zm-7.864.136c.168.168.192.324.172,1.116-.024.948-.028.952-1.2.952S9.4-582.968,9.4-584.08c0-.74.02-.836.224-1,.1-.08.156-.084.984-.084h.88Zm4.056-.028c.172.144.2.308.2,1.016s-.036.856-.232.988c-.132.088-.168.092-.96.092-1.2,0-1.2,0-1.2-1.12,0-.74.02-.836.224-1,.1-.08.156-.084.98-.084h.868ZM6.04-582.48v.68H2.92v-1.36H6.04Zm13.48.668c.08.1.084.14.072,1.06-.016,1.128,0,1.084-.452,1.1-.336.02-.464,0-.556-.1-.056-.052-.064-.2-.064-1.056,0-1.192-.036-1.12.544-1.12C19.42-581.92,19.436-581.916,19.52-581.812Zm-8.028.388c.256.1.284.2.3.984.016.812-.016.964-.228,1.108-.132.088-.168.092-.984.092-.8,0-.856,0-.956-.084-.2-.16-.224-.252-.224-1.016,0-.792.032-.928.248-1.06.12-.072.2-.08.924-.08A3.5,3.5,0,0,1,11.492-581.424Zm4.08,0c.256.1.288.2.3.984.016.812-.016.968-.228,1.108-.132.088-.168.092-.984.092-.8,0-.856,0-.956-.084-.2-.16-.224-.252-.224-1.016,0-.792.032-.928.248-1.06.12-.072.2-.08.924-.08A3.5,3.5,0,0,1,15.572-581.424Z"/></g></svg>