<svg xmlns="http://www.w3.org/2000/svg" width="15.996" height="23.904" viewBox="0 0 15.996 23.904"><defs><style>.a{fill:#003567;}</style></defs><g transform="translate(-0.148 492.889)"><path class="a" d="M7.341-492.846a7.958,7.958,0,0,0-2.785.83A8.232,8.232,0,0,0,1.693-489.6a10.054,10.054,0,0,0-1.14,2.2,8.34,8.34,0,0,0-.223,4.279c.9,3.658,3.256,8.049,6.982,13.017a12.024,12.024,0,0,0,.888,1.116c.107-.039,2.324-3.27,3.353-4.891a37.211,37.211,0,0,0,4.187-8.238,9.439,9.439,0,0,0,.374-3.416,7.266,7.266,0,0,0-.4-1.936A7.988,7.988,0,0,0,7.341-492.846Zm1.849,4.677a3.545,3.545,0,0,1,1.407.878,3.468,3.468,0,0,1,.975,1.849,2.8,2.8,0,0,1,0,1.2,3.468,3.468,0,0,1-.975,1.849,3.426,3.426,0,0,1-3.891.728,3.5,3.5,0,0,1-1.868-2.018,2.2,2.2,0,0,1-.155-1.16,2.317,2.317,0,0,1,.136-1.116,3.574,3.574,0,0,1,2.489-2.28A3.75,3.75,0,0,1,9.189-488.169Z" transform="translate(0 0)"/></g></svg>