<svg id="Layer_1" data-name="Layer 1" xmlns="http://www.w3.org/2000/svg" viewBox="0 0 278.28 243.75">
  <defs>
    <style>
      .cls-1 {
        fill: #262f56;
        stroke: #262f56;
        stroke-linecap: round;
        stroke-linejoin: round;
        stroke-width: 1.8px;
      }
    </style>
  </defs>
  <title>login</title>
  <g>
    <path class="cls-1" d="M159,262.71A121.36,121.36,0,0,1,48.73,191.46,6.74,6.74,0,1,1,61,185.88a106.22,106.22,0,0,0,24,33.76,108.17,108.17,0,0,0,64.41,29.21,104.59,104.59,0,0,0,26.4-.91,107.54,107.54,0,0,0,70.12-43A107.16,107.16,0,0,0,256.12,95.62,107.49,107.49,0,0,0,78.5,70.54a105.88,105.88,0,0,0-17.44,26.9A6.74,6.74,0,1,1,48.8,91.86a121,121,0,0,1,144-66.27,118.54,118.54,0,0,1,31.88,14.59,121.24,121.24,0,0,1,27.43,24.41,120.71,120.71,0,0,1-17.8,171.73,119.77,119.77,0,0,1-46.89,23A123.23,123.23,0,0,1,159,262.71Z" transform="translate(-2.59 -19.85)"/>
    <path class="cls-1" d="M159,204.69H110.08c-3.31,0-6.62,0-9.93,0-1.75,0-2.46-.75-2.43-2.51.07-4.46.19-8.93.28-13.39a12.1,12.1,0,0,1,7.08-11.32c6.76-3.41,13.55-6.75,20.21-10.34a98.26,98.26,0,0,0,9-5.89c1.76-1.21,2.45-1.33,4.14,0a36.12,36.12,0,0,0,15.76,7.42c7.53,1.34,14.43-.47,20.88-4.31a46.27,46.27,0,0,0,4.55-3.18,2.82,2.82,0,0,1,3.82-.13,58.8,58.8,0,0,0,6.37,4.5c4.56,2.51,9.28,4.75,13.91,7.13q4.95,2.54,9.85,5.18c4.29,2.3,6.31,6,6.49,10.78.17,4.36.24,8.72.33,13.08,0,2.4-.61,3-3,3Z" transform="translate(-2.59 -19.85)"/>
    <path class="cls-1" d="M126.72,122.73c.31-1.72.1-3.81,1-5.07,2.28-3.11,1.42-6.6,1.89-9.9,1-6.76,2.87-13.13,7.21-18.53,5-6.22,11.72-9,19.51-9.56a32.23,32.23,0,0,1,15.18,2.26c7.93,3.41,12.55,9.71,15.1,17.71a46.16,46.16,0,0,1,2.14,14.22,2.94,2.94,0,0,0,.93,2.53,4.2,4.2,0,0,1,1,2.29c1,5.43.61,10.91-2.65,15.3-3,4-4.81,8.47-7.37,12.6-4.1,6.61-9.69,11.25-17.26,13.41-4.56,1.3-8.83.4-13-1.5-6.89-3.14-11.54-8.5-14.9-15.12-.77-1.52-1.37-3.12-2.06-4.67a3.85,3.85,0,0,0-.56-1C128.52,132.77,126.94,128.87,126.72,122.73Z" transform="translate(-2.59 -19.85)"/>
    <path class="cls-1" d="M90.82,135.06c-1.58-1.72-2.87-3.15-4.19-4.55q-7.54-8-15.11-15.94a6.67,6.67,0,0,1-1.74-7.06A6.42,6.42,0,0,1,75,103a6.21,6.21,0,0,1,5.91,1.89Q96.14,121,111.33,137.2a6.56,6.56,0,0,1,0,9.13q-13.72,14.56-27.48,29.09-1.29,1.37-2.56,2.75a6.72,6.72,0,1,1-10-9c4.29-4.64,8.67-9.2,13-13.79l6.59-7H10.77c-3.68,0-5.94-1.57-7-4.79a6.61,6.61,0,0,1,5.56-8.5,17.43,17.43,0,0,1,1.8,0H90.82Z" transform="translate(-2.59 -19.85)"/>
  </g>
</svg>
